<svg width="154" height="30" viewBox="0 0 154 30" fill="none" xmlns="http://www.w3.org/2000/svg">
<path d="M26.5469 2.04688C26.2552 2.07812 25.8385 2.13542 25.2969 2.21875C24.7552 2.30208 24.2656 2.50521 23.8281 2.82812C23.4427 3.10938 23.1667 3.59375 23 4.28125C22.8438 4.95833 22.7656 5.95833 22.7656 7.28125V23.125H19.9844L6.17188 5.98438V16.3906C6.17188 17.6823 6.25521 18.6667 6.42188 19.3438C6.59896 20.0104 6.88021 20.5 7.26562 20.8125C7.54688 21.0417 7.99479 21.2448 8.60938 21.4219C9.22396 21.599 9.71354 21.7188 10.0781 21.7812V23H0.546875V21.7812C0.953125 21.75 1.41667 21.6771 1.9375 21.5625C2.46875 21.4375 2.91146 21.25 3.26562 21C3.67188 20.6979 3.94792 20.2448 4.09375 19.6406C4.25 19.026 4.32812 18 4.32812 16.5625V6.0625C4.32812 5.54167 4.24479 5.05208 4.07812 4.59375C3.92188 4.125 3.67188 3.72396 3.32812 3.39062C2.96354 3.03646 2.54167 2.76042 2.0625 2.5625C1.59375 2.35417 1.05729 2.19271 0.453125 2.07812V0.828125H8.79688L20.9219 15.8281V7.4375C20.9219 6.10417 20.8333 5.11458 20.6562 4.46875C20.4792 3.8125 20.1979 3.32812 19.8125 3.01562C19.5104 2.77604 19.0625 2.57292 18.4688 2.40625C17.875 2.22917 17.3958 2.10938 17.0312 2.04688V0.828125H26.5469V2.04688ZM44.5781 19.2656C44.2135 19.8594 43.7708 20.4219 43.25 20.9531C42.7396 21.474 42.1562 21.9219 41.5 22.2969C40.8021 22.6927 40.0938 22.9896 39.375 23.1875C38.6667 23.3958 37.849 23.5 36.9219 23.5C35.3802 23.5 34.0469 23.2812 32.9219 22.8438C31.8073 22.4062 30.8854 21.8177 30.1562 21.0781C29.4271 20.3385 28.8802 19.4688 28.5156 18.4688C28.1615 17.4583 27.9844 16.3646 27.9844 15.1875C27.9844 14.125 28.1771 13.1094 28.5625 12.1406C28.9583 11.1615 29.5156 10.2917 30.2344 9.53125C30.9427 8.79167 31.8333 8.19271 32.9062 7.73438C33.9896 7.27604 35.1979 7.04688 36.5312 7.04688C37.9896 7.04688 39.1875 7.22396 40.125 7.57812C41.0625 7.93229 41.8385 8.42188 42.4531 9.04688C43.0469 9.64062 43.4792 10.3438 43.75 11.1562C44.0208 11.9583 44.1562 12.8021 44.1562 13.6875V14.7031H33.5938C33.5938 16.8385 34.0052 18.4635 34.8281 19.5781C35.651 20.6927 36.9583 21.25 38.75 21.25C39.7292 21.25 40.6094 20.9844 41.3906 20.4531C42.1719 19.9115 42.8385 19.2292 43.3906 18.4062L44.5781 19.2656ZM38.6094 13.3281C38.6094 12.7031 38.5781 12.0625 38.5156 11.4062C38.4531 10.75 38.3438 10.2135 38.1875 9.79688C38.0104 9.30729 37.7656 8.9375 37.4531 8.6875C37.151 8.4375 36.7656 8.3125 36.2969 8.3125C35.4948 8.3125 34.8542 8.71875 34.375 9.53125C33.8958 10.3438 33.6354 11.6302 33.5938 13.3906L38.6094 13.3281ZM73.0312 8.64062C72.5521 8.71354 72.1094 8.875 71.7031 9.125C71.2969 9.36458 70.9531 9.81771 70.6719 10.4844C69.9427 12.2656 69.3594 13.7031 68.9219 14.7969C68.4844 15.8906 67.8698 17.4688 67.0781 19.5312C66.9115 19.9583 66.7083 20.5469 66.4688 21.2969C66.2396 22.0469 66.0573 22.6615 65.9219 23.1406H62.875L58.9375 12.5156L55.25 23.1406H52.2344C51.1823 20.2969 50.3542 18.0938 49.75 16.5312C49.1458 14.9583 48.3385 12.8854 47.3281 10.3125C47.1406 9.82292 46.8177 9.4375 46.3594 9.15625C45.9115 8.875 45.4479 8.70312 44.9688 8.64062V7.5H54.5625V8.64062C54.2083 8.67188 53.7865 8.75521 53.2969 8.89062C52.8073 9.02604 52.5625 9.20833 52.5625 9.4375C52.5625 9.54167 52.5729 9.63542 52.5938 9.71875C52.625 9.79167 52.6719 9.93229 52.7344 10.1406C53.0156 10.9531 53.401 12.0052 53.8906 13.2969C54.3802 14.5781 54.9531 16.0729 55.6094 17.7812L59.0781 7.5H62.1719L66.125 18.125C66.7292 16.5208 67.1927 15.2604 67.5156 14.3438C67.849 13.4167 68.2656 12.224 68.7656 10.7656C68.8385 10.5469 68.8802 10.3542 68.8906 10.1875C68.9115 10.0104 68.9167 9.89583 68.9062 9.84375C68.9062 9.65625 68.8125 9.48958 68.625 9.34375C68.4375 9.1875 68.2135 9.0625 67.9531 8.96875C67.6927 8.875 67.4375 8.80208 67.1875 8.75C66.9479 8.69792 66.7448 8.66146 66.5781 8.64062V7.5H73.0312V8.64062ZM80.9531 23.5312C79.9427 23.5312 78.9531 23.3802 77.9844 23.0781C77.026 22.7865 76.2812 22.474 75.75 22.1406L75.2812 23.2031H74.0625L73.8594 17.375H75C75.1562 17.8438 75.4167 18.375 75.7812 18.9688C76.1458 19.5521 76.5625 20.0781 77.0312 20.5469C77.5208 21.0156 78.0781 21.4115 78.7031 21.7344C79.3385 22.0573 80.0156 22.2188 80.7344 22.2188C81.6823 22.2188 82.3854 22.0365 82.8438 21.6719C83.3125 21.2969 83.5469 20.724 83.5469 19.9531C83.5469 19.5365 83.4427 19.1927 83.2344 18.9219C83.026 18.651 82.7396 18.4167 82.375 18.2188C81.9688 18.0104 81.5208 17.8333 81.0312 17.6875C80.5521 17.5417 79.9583 17.3646 79.25 17.1562C78.5417 16.9479 77.9323 16.7396 77.4219 16.5312C76.9219 16.3125 76.401 15.974 75.8594 15.5156C75.3906 15.1094 75.0156 14.6198 74.7344 14.0469C74.4531 13.474 74.3125 12.7917 74.3125 12C74.3125 10.5312 74.9271 9.34375 76.1562 8.4375C77.3958 7.53125 79.0156 7.07812 81.0156 7.07812C81.9635 7.07812 82.8333 7.17708 83.625 7.375C84.4271 7.5625 85.099 7.77083 85.6406 8L85.9688 7.07812H87.1562L87.4062 12.4062H86.2969C85.9323 11.3229 85.3073 10.3906 84.4219 9.60938C83.5365 8.81771 82.5833 8.42188 81.5625 8.42188C80.7604 8.42188 80.1302 8.58854 79.6719 8.92188C79.2135 9.25521 78.9844 9.71875 78.9844 10.3125C78.9844 11.1042 79.3177 11.6771 79.9844 12.0312C80.6615 12.3854 81.6042 12.7188 82.8125 13.0312C84.6771 13.5104 86.0417 14.1667 86.9062 15C87.7708 15.8229 88.2031 16.875 88.2031 18.1562C88.2031 19.8646 87.5312 21.1875 86.1875 22.125C84.8542 23.0625 83.1094 23.5312 80.9531 23.5312ZM110.266 3.10938C111.62 3.99479 112.714 5.17708 113.547 6.65625C114.38 8.125 114.797 9.92708 114.797 12.0625C114.797 13.9375 114.422 15.5729 113.672 16.9688C112.932 18.3542 111.948 19.4896 110.719 20.375C109.469 21.2604 108.047 21.9219 106.453 22.3594C104.87 22.7865 103.208 23 101.469 23H90.2969V21.7812C90.6302 21.7708 91.0469 21.7396 91.5469 21.6875C92.0469 21.6354 92.3802 21.5729 92.5469 21.5C92.9219 21.3438 93.1823 21.1354 93.3281 20.875C93.474 20.6042 93.5469 20.2812 93.5469 19.9062V4.1875C93.5469 3.83333 93.4792 3.51562 93.3438 3.23438C93.2083 2.94271 92.9427 2.70833 92.5469 2.53125C92.151 2.35417 91.7292 2.23438 91.2812 2.17188C90.8438 2.10938 90.5052 2.06771 90.2656 2.04688V0.828125H102.062C103.323 0.828125 104.672 0.989583 106.109 1.3125C107.547 1.63542 108.932 2.23438 110.266 3.10938ZM107.078 19C107.589 18.1667 107.958 17.1771 108.188 16.0312C108.427 14.875 108.547 13.5469 108.547 12.0469C108.547 10.5781 108.391 9.23958 108.078 8.03125C107.766 6.82292 107.307 5.79167 106.703 4.9375C106.099 4.08333 105.344 3.42188 104.438 2.95312C103.542 2.48438 102.521 2.25 101.375 2.25C101.01 2.25 100.594 2.26042 100.125 2.28125C99.6667 2.29167 99.3229 2.30208 99.0938 2.3125V19.1406C99.0938 19.5156 99.1406 19.849 99.2344 20.1406C99.3385 20.4219 99.5104 20.6719 99.75 20.8906C99.9896 21.1094 100.281 21.2812 100.625 21.4062C100.979 21.5208 101.438 21.5781 102 21.5781C103.177 21.5781 104.188 21.3594 105.031 20.9219C105.875 20.4844 106.557 19.8438 107.078 19ZM134.672 22.6719C134.214 22.8698 133.672 23.0521 133.047 23.2188C132.422 23.3854 131.76 23.4688 131.062 23.4688C129.781 23.4688 128.839 23.2812 128.234 22.9062C127.63 22.5208 127.219 21.974 127 21.2656H126.906C126.552 21.6198 126.208 21.9219 125.875 22.1719C125.552 22.4219 125.203 22.6354 124.828 22.8125C124.339 23.0417 123.865 23.2083 123.406 23.3125C122.958 23.4271 122.328 23.4844 121.516 23.4844C120.307 23.4844 119.276 23.1302 118.422 22.4219C117.568 21.7031 117.141 20.7552 117.141 19.5781C117.141 18.901 117.234 18.3281 117.422 17.8594C117.609 17.3802 117.875 16.9583 118.219 16.5938C118.531 16.2604 118.891 15.9844 119.297 15.7656C119.714 15.5469 120.167 15.3438 120.656 15.1562C121.594 14.8125 122.719 14.4583 124.031 14.0938C125.344 13.7188 126.302 13.3854 126.906 13.0938V11.5938C126.906 11.3333 126.885 10.9896 126.844 10.5625C126.802 10.1354 126.714 9.77604 126.578 9.48438C126.432 9.15104 126.203 8.86979 125.891 8.64062C125.578 8.41146 125.167 8.29688 124.656 8.29688C124.198 8.29688 123.812 8.36458 123.5 8.5C123.198 8.625 122.953 8.75521 122.766 8.89062C122.797 9.09896 122.885 9.41667 123.031 9.84375C123.177 10.2708 123.25 10.6823 123.25 11.0781C123.25 11.2552 123.203 11.4792 123.109 11.75C123.016 12.0104 122.88 12.2188 122.703 12.375C122.464 12.5833 122.193 12.7448 121.891 12.8594C121.599 12.974 121.146 13.0312 120.531 13.0312C119.656 13.0312 118.995 12.8229 118.547 12.4062C118.099 11.9792 117.875 11.4271 117.875 10.75C117.875 10.1667 118.104 9.64583 118.562 9.1875C119.031 8.71875 119.599 8.33333 120.266 8.03125C120.922 7.71875 121.677 7.47917 122.531 7.3125C123.385 7.13542 124.177 7.04688 124.906 7.04688C125.917 7.04688 126.844 7.10938 127.688 7.23438C128.531 7.34896 129.292 7.59375 129.969 7.96875C130.615 8.33333 131.125 8.86458 131.5 9.5625C131.885 10.25 132.078 11.151 132.078 12.2656C132.078 13.4427 132.052 14.8385 132 16.4531C131.958 18.0677 131.938 19.1302 131.938 19.6406C131.938 20.1094 132.005 20.4792 132.141 20.75C132.286 21.0208 132.505 21.224 132.797 21.3594C132.974 21.4427 133.25 21.4948 133.625 21.5156C134.01 21.526 134.359 21.5312 134.672 21.5312V22.6719ZM126.906 14.5312C126.323 14.7292 125.745 14.9583 125.172 15.2188C124.599 15.4688 124.13 15.7344 123.766 16.0156C123.38 16.3073 123.078 16.6823 122.859 17.1406C122.641 17.5885 122.531 18.1198 122.531 18.7344C122.531 19.5469 122.714 20.1354 123.078 20.5C123.453 20.8646 123.911 21.0469 124.453 21.0469C125.026 21.0469 125.495 20.9323 125.859 20.7031C126.234 20.4635 126.562 20.1719 126.844 19.8281L126.906 14.5312ZM153.531 8.64062C153.062 8.71354 152.604 8.89062 152.156 9.17188C151.719 9.45312 151.354 9.89062 151.062 10.4844C150.167 12.3802 149.245 14.401 148.297 16.5469C147.349 18.6823 146.297 20.9948 145.141 23.4844C144.495 24.8802 143.87 25.9948 143.266 26.8281C142.661 27.6615 142.094 28.3021 141.562 28.75C141.062 29.1667 140.568 29.4688 140.078 29.6562C139.589 29.8438 139.094 29.9375 138.594 29.9375C137.604 29.9375 136.802 29.6615 136.188 29.1094C135.583 28.5573 135.281 27.9375 135.281 27.25C135.281 26.9583 135.312 26.6875 135.375 26.4375C135.448 26.1875 135.594 25.9271 135.812 25.6562C135.979 25.4271 136.234 25.2292 136.578 25.0625C136.932 24.9062 137.328 24.8281 137.766 24.8281C138.349 24.8281 138.906 25.0312 139.438 25.4375C139.969 25.8438 140.521 26.4062 141.094 27.125C141.438 26.7812 141.859 26.2656 142.359 25.5781C142.87 24.901 143.245 24.2031 143.484 23.4844C142.245 20.8802 141.146 18.625 140.188 16.7188C139.229 14.8021 138.156 12.6667 136.969 10.3125C136.708 9.8125 136.359 9.42708 135.922 9.15625C135.484 8.875 135.021 8.70312 134.531 8.64062V7.5H144.094V8.64062C143.74 8.65104 143.328 8.72917 142.859 8.875C142.401 9.02083 142.172 9.20833 142.172 9.4375C142.172 9.52083 142.188 9.61458 142.219 9.71875C142.25 9.8125 142.307 9.95312 142.391 10.1406C142.745 10.8698 143.245 11.8854 143.891 13.1875C144.547 14.4792 145.307 15.9948 146.172 17.7344C146.818 16.2552 147.365 14.9844 147.812 13.9219C148.271 12.849 148.714 11.7969 149.141 10.7656C149.245 10.5052 149.302 10.3021 149.312 10.1562C149.333 10 149.344 9.89583 149.344 9.84375C149.344 9.65625 149.25 9.49479 149.062 9.35938C148.885 9.21354 148.672 9.08854 148.422 8.98438C148.161 8.88021 147.911 8.80208 147.672 8.75C147.432 8.69792 147.234 8.66146 147.078 8.64062V7.5H153.531V8.64062Z" fill="#000425"/>
</svg>
